<?xml version="1.0" encoding="utf-8"?>
<!-- Generator: Adobe Illustrator 28.3.0, SVG Export Plug-In . SVG Version: 6.00 Build 0)  -->
<svg version="1.1" id="Layer_1" xmlns="http://www.w3.org/2000/svg" xmlns:xlink="http://www.w3.org/1999/xlink" x="0px" y="0px"
	 viewBox="0 0 617.2 143.7" style="enable-background:new 0 0 617.2 143.7;" xml:space="preserve">
<style type="text/css">
	.st0{fill:#FFFFFF;}
</style>
<path class="st0" d="M309.7,60.5V62h-25.2v-1.5c6.9,0,2.3-9.4,2.3-9.4l-2.6-6.4h-20.9c0,0-5.5,16.5,8.4,15.8V62h-21.6v-1.5
	c2.1-0.2,4.2,0.4,11.8-17.3h21.7l-11.2-27.4l6-15.8h1.5c21.6,51.7,22.4,54,22.4,54C305.3,61.1,307.4,60.3,309.7,60.5z M330.6,60.5
	V62h-18v-1.5c3.3-1.1,3.5-4.8,3.5-9.2V31.7c0-3-0.9-4.2-4.5-6.2V24l15.4-3.5v30.7C327,56.1,327.5,59.6,330.6,60.5z M320.7,13.5
	c-3.3,0-6-2.6-6-6s2.6-6,6-6c3.3,0,6.1,2.6,6.1,6S324,13.5,320.7,13.5z M352.6,60.5V62h-18.2v-1.5c3.4-1.1,3.5-4.7,3.5-9.2V31.7
	c0-3-0.8-4.3-4.4-6.2V24l15.5-3.5v30.7C349,56.1,349.4,59.6,352.6,60.5z M366.5,22.1c2.7,2.4,3,6.6,0.6,9.2
	c-2.4,2.7-6.4,3.1-9.2,0.7c-1.3-1.2-2-2.7-2-4.3c0-0.7-1.9-0.7-4.1,1.3l-0.9-1.2c3.8-5,6.7-6.1,8.5-6.9
	C361.2,20.2,364.5,20.5,366.5,22.1z M416.8,42c0,13.6-8.5,20.2-20.1,20.8v-1.6c5.2-1,7.5-6.3,7.5-18.4c0-14.2-3.3-19-10.5-19
	c-5.3,0-8.4,4.2-9.1,9.5v16.1c0.6,7.8,4.5,11,8.4,11.8v1.5c-3.3-0.3-6.2-1.1-8.4-2.6v15.2c0,4.9,0.5,7.7,3.6,8.5v1.5h-18v-1.5
	c3.3-1,3.5-4,3.5-8.5V30.4c0-3-0.9-3.6-4.4-4.9V24l15.3-3.5v7.1c2.8-5.2,9.2-7.1,13.4-7.1C408,20.5,416.8,28.2,416.8,42z
	 M441.9,61.1v1.6c-12.2-0.8-19.1-10-19.1-21c0-11.1,6.9-20.2,19.1-21v1.6c-4.8,0.7-6.2,5.2-6.2,19.4C435.7,55.9,437,60.4,441.9,61.1
	z M445.5,62.7v-1.6c4.8-0.7,6.2-5.2,6.2-19.4c0-14.3-1.3-18.7-6.2-19.4v-1.6c12.3,0.8,19.2,9.9,19.2,21
	C464.7,52.6,457.8,61.9,445.5,62.7z M486.7,60.5V62h-18.2v-1.5c3.4-1.1,3.5-4.7,3.5-9.2V31.7c0-3-0.8-4.3-4.4-6.2V24l15.5-3.5v30.7
	C483.1,56.1,483.5,59.6,486.7,60.5z M500.6,22.1c2.7,2.4,3,6.6,0.6,9.2c-2.4,2.7-6.4,3.1-9.2,0.7c-1.3-1.2-2-2.7-2-4.3
	c0-0.7-1.9-0.7-4.1,1.3l-0.9-1.2c3.8-5,6.7-6.1,8.5-6.9C495.3,20.2,498.6,20.5,500.6,22.1z M530.9,53.4l1.3,0.8
	c-1.8,4.1-7.1,8.5-13,8.5c-7,0-11.1-2.8-11.1-13.5V22.8h-4.4l-0.3-1.5h4.7V9.5l11-1.8v13.6h10.5l-0.4,1.5h-10.1V49
	c0,4.9,2.1,7.5,6.5,7.5C528.2,56.5,530.1,54.7,530.9,53.4z M268.9,143H251v-1.5c3.7,0,5.1-4.6,5.1-10.6V93.1
	c0-5.5-1.2-10.6-5.1-10.6V81h17.9V143z M274.3,82.6V81h25.1v16.7h-1.5C296.2,85.4,280.4,83,274.3,82.6z M286.3,101.8h1.5v19.8h-1.5
	c-1.2-6.9-8-8.5-12-9v-1.8C278.3,110.3,285.1,108.7,286.3,101.8z M300.6,143h-26.2v-1.6c6-0.6,21.7-3.3,24.7-17.6h1.5V143z
	 M351.9,141.5v1.5h-21.5v-1.5c4.3,0-0.1-6.2-0.1-6.2l-18.8-28.4c-3.1-3.7-4.8-2.9-6.1-3.1v-1.5h21v1.5c-2.1,0-3.9,1.3-1,5.5
	l18.7,28.5C346.7,141.5,350.5,141.5,351.9,141.5z M326.2,141.5v1.5h-19.9v-1.5c1.3,0,6,0,13.9-10.6l1.1,1.3
	C321.4,132.2,315.4,141.5,326.2,141.5z M329.9,103.8v-1.5h19.9v1.5c-1.2,0.2-6.6-0.7-15.5,10.4l-0.9-1.1
	C333.5,113,339.5,103.8,329.9,103.8z M388.6,131.4l1.5,0.8c-1.4,4.6-6.6,11.5-18.4,11.5c-11.5,0-19.4-10.6-19.4-20.9
	c0-11.6,7.5-20.2,18.5-21.1v1.4c-4.3,1.7-7.1,9.8-7.1,17.2h17.2c0-9.4-2.6-15.8-6.5-17.2v-1.5c11.7,0.5,17.2,7.1,17.2,20.2h-28
	c0.7,8.6,5.1,13.1,11,14.4C379.4,137.3,386.4,135.6,388.6,131.4z M434.3,132.4c-1.2,4.5-6.5,11.4-17.5,11.4
	c-11.5,0-19.4-11-19.4-21.3c0-9.7,7.1-20,20.9-20.9v1.7c-3.8,0.9-9.9,4.8-9.9,17.6c0,9.5,5.1,13.7,11.2,15c4.4,1,11.4-1.4,13.4-4.3
	L434.3,132.4z M422.1,103.2v-1.6c5.1,0.4,8.3,2.6,9.7,3.8c1.5,1.3,2.4,3.8,1.8,5.9c-0.9,3.1-4,5.1-7.2,4.2c-3.2-0.8-5-4-4.1-7.1
	c0.4-1.7,1.4-2.8,2.7-3.5C425.5,104.6,424.4,103.6,422.1,103.2z M465.9,137.6c-3.2,3.5-8.5,6.2-12.7,6.2c-7,0-11.1-2.9-11.1-13.5
	v-18.8c0-5.3,0.2-6.1-4.9-6.8v-1.5l15.8-1.7V130c0,4.9,2.3,7.3,7.4,7.3c1.3,0,2.9-0.4,4.4-1.5L465.9,137.6z M483.6,139.9v1.5
	l-13,2.3c-2.4,0.4-2.5-1.7-2.5-1.7v-30.3c0-5.4,0.4-6.5-4.1-7v-1.5l15.1-1.7v33.4C479.1,139.1,479.9,139.4,483.6,139.9z
	 M512.3,134.4l1.3,0.8c-1.8,4.1-7.1,8.5-13,8.5c-7,0-11.1-2.8-11.1-13.5v-26.5h-4.4l-0.3-1.5h4.7V90.5l11-1.8v13.6H511l-0.4,1.5
	h-10.1V130c0,4.9,2.1,7.5,6.5,7.5C509.6,137.5,511.5,135.7,512.3,134.4z M534.2,141.5v1.5h-18v-1.5c3.3-1.1,3.5-4.8,3.5-9.2v-19.5
	c0-3-0.9-4.2-4.5-6.2V105l15.4-3.5v30.7C530.6,137.1,531,140.6,534.2,141.5z M524.2,94.5c-3.3,0-6-2.6-6-6s2.6-6,6-6
	c3.3,0,6.1,2.6,6.1,6S527.6,94.5,524.2,94.5z M552.5,110.4l9.7,20.8l-5,12.6h-1.4c-15.6-33.8-16.4-35.3-16.4-35.3
	c-2.1-4.7-4.4-4.7-6-4.7v-1.5h20.8v1.5C549.2,103.8,552.5,110.4,552.5,110.4z M579.1,102.3v1.5c-2,0-5.8,0.1-11.4,13.6l-1.4-0.8
	c0.8-2.2,4.2-12.8-4.3-12.8v-1.5H579.1z M614.2,131.4l1.5,0.8c-1.4,4.6-6.6,11.5-18.4,11.5c-11.5,0-19.4-10.6-19.4-20.9
	c0-11.6,7.5-20.2,18.5-21.1v1.4c-4.3,1.7-7.1,9.8-7.1,17.2h17.2c0-9.4-2.6-15.8-6.5-17.2v-1.5c11.7,0.5,17.2,7.1,17.2,20.2h-28
	c0.7,8.6,5.1,13.1,11,14.4C604.9,137.3,612,135.6,614.2,131.4z M193.5,99.3h3.4v43.6h-39.6v-3.6C170.9,137.9,186.7,131.7,193.5,99.3
	z M181,71.1c-10.5-1.2-26.8-0.2-35.8-24.3h-4.6l5.8,23.8h-23.9V3.2H83.9v26.5c0,40.4,36.6,41.1,36.6,41.1h2v4.5h-2
	c0,0-36.6,0.7-36.6,41.1v26.5h38.6V75.5h23.9l-5.8,23.8h4.6C154.4,75,170.5,76.2,181,75V71.1z M38.5,99.3h-4.7
	c-16,36.5-29.2,39.8-33.9,40.2v3.4h49.2v-3.4C19.4,141.1,36.9,103.2,38.5,99.3z M157.3,3.2v3.6c13.6,1.4,29.4,7.6,36.2,40h3.4V3.2
	H157.3z M533.5,16.5H532V9h-2.6V7.7h6.7V9h-2.6V16.5z M540.8,16.5l-2.5-6.9h-0.1l0.1,1.6v5.3h-1.5V7.7h2.3l2.4,6.9l2.5-6.9h2.2v8.8
	h-1.6v-5.1l0.1-1.7h-0.1l-2.6,6.8H540.8z"/>
</svg>
